<svg width="16" height="16" viewBox="0 0 16 16" fill="none" xmlns="http://www.w3.org/2000/svg">
<path d="M12.25 12.3985C12.25 12.9826 12.25 13.2747 12.1331 13.414C12.0317 13.5351 11.879 13.601 11.7213 13.592C11.5398 13.5815 11.3271 13.3814 10.9017 12.981L8.54829 10.766C8.35527 10.5844 8.25876 10.4935 8.14874 10.4593C8.05187 10.4291 7.94813 10.4291 7.85126 10.4593C7.74124 10.4935 7.64473 10.5844 7.45171 10.766L5.09829 12.981C4.67292 13.3814 4.46024 13.5815 4.27865 13.592C4.12099 13.601 3.96833 13.5351 3.86686 13.414C3.75 13.2747 3.75 12.9826 3.75 12.3985V4.35C3.75 3.78995 3.75 3.50992 3.85899 3.29601C3.95487 3.10785 4.10785 2.95487 4.29601 2.85899C4.50992 2.75 4.78995 2.75 5.35 2.75H10.65C11.2101 2.75 11.4901 2.75 11.704 2.85899C11.8922 2.95487 12.0451 3.10785 12.141 3.29601C12.25 3.50992 12.25 3.78995 12.25 4.35V12.3985Z" stroke="white" stroke-width="1.5" stroke-linejoin="round"/>
</svg>
