<svg width="16" height="16" viewBox="0 0 16 16" fill="none" xmlns="http://www.w3.org/2000/svg">
<path d="M13.25 5.5V5.15C13.25 4.30992 13.25 3.88988 13.0865 3.56901C12.9427 3.28677 12.7132 3.0573 12.431 2.91349C12.1101 2.75 11.6901 2.75 10.85 2.75H10.5M5.5 2.75H5.15C4.30992 2.75 3.88988 2.75 3.56901 2.91349C3.28677 3.0573 3.0573 3.28677 2.91349 3.56901C2.75 3.88988 2.75 4.30992 2.75 5.15V5.5" stroke="white" stroke-width="1.5" stroke-linecap="round"/>
<path d="M13.25 10.5V10.85C13.25 11.6901 13.25 12.1101 13.0865 12.431C12.9427 12.7132 12.7132 12.9427 12.431 13.0865C12.1101 13.25 11.6901 13.25 10.85 13.25H10.5M5.5 13.25H5.15C4.30992 13.25 3.88988 13.25 3.56901 13.0865C3.28677 12.9427 3.0573 12.7132 2.91349 12.431C2.75 12.1101 2.75 11.6901 2.75 10.85V10.5" stroke="white" stroke-width="1.5" stroke-linecap="round"/>
</svg>
