<svg width="16" height="16" viewBox="0 0 16 16" fill="none" xmlns="http://www.w3.org/2000/svg">
<path d="M6.48453 4.75H12.5M6.48453 4.75C6.49474 4.6681 6.5 4.58467 6.5 4.5C6.5 3.39543 5.60457 2.5 4.5 2.5C3.39543 2.5 2.5 3.39543 2.5 4.5C2.5 5.60457 3.39543 6.5 4.5 6.5C5.5199 6.5 6.3615 5.73658 6.48453 4.75Z" stroke="white" stroke-width="1.5" stroke-linecap="round"/>
<path d="M9.51548 11.25H3.50012M9.51548 11.25C9.50527 11.3319 9.50001 11.4153 9.50001 11.5C9.50001 12.6046 10.3954 13.5 11.5 13.5C12.6046 13.5 13.5 12.6046 13.5 11.5C13.5 10.3954 12.6046 9.5 11.5 9.5C10.4801 9.5 9.6385 10.2634 9.51548 11.25Z" stroke="white" stroke-width="1.5" stroke-linecap="round"/>
</svg>
