<svg width="16" height="16" viewBox="0 0 16 16" fill="none" xmlns="http://www.w3.org/2000/svg">
<path d="M4.41513 12.2527C3.60212 12.2527 2.91014 11.9824 2.33916 11.442C1.76776 10.9023 1.48206 10.2449 1.48206 9.46981C1.48206 8.75842 1.73734 8.12711 2.24791 7.57588C2.75849 7.02465 3.39312 6.72855 4.1518 6.68758C4.29824 5.78335 4.73494 5.03637 5.46191 4.44665C6.18888 3.85693 7.03491 3.56207 8 3.56207C9.08719 3.56207 10.0108 3.92397 10.7708 4.64778C11.5308 5.37158 11.9108 6.25119 11.9108 7.28661V7.90737H12.3123C12.9362 7.9264 13.4599 8.1447 13.8831 8.56226C14.3063 8.97983 14.5179 9.48574 14.5179 10.08C14.5179 10.6888 14.2976 11.2032 13.857 11.6232C13.4155 12.0428 12.8754 12.2527 12.2367 12.2527H4.41513Z" stroke="white" stroke-width="1.5" stroke-linejoin="round"/>
</svg>
