<svg width="16" height="16" viewBox="0 0 16 16" fill="none" xmlns="http://www.w3.org/2000/svg">
<path d="M4.46447 8.70709L3.40381 7.64643C2.8412 7.08382 2.52513 6.32076 2.52513 5.52511C2.52513 4.72946 2.8412 3.9664 3.40381 3.40379C3.96642 2.84118 4.72948 2.52511 5.52513 2.52511C6.32078 2.52511 7.08384 2.84118 7.64645 3.40379L8.70711 4.46445M11.5355 7.29288L12.5962 8.35354C13.1588 8.91615 13.4749 9.67921 13.4749 10.4749C13.4749 11.2705 13.1588 12.0336 12.5962 12.5962C12.0336 13.1588 11.2705 13.4749 10.4749 13.4749C9.67923 13.4749 8.91617 13.1588 8.35356 12.5962L7.2929 11.5355M6.07911 6.07909L9.9651 9.96508" stroke="white" stroke-width="1.5" stroke-linecap="round" stroke-linejoin="round"/>
</svg>
