<svg width="16" height="16" viewBox="0 0 16 16" fill="none" xmlns="http://www.w3.org/2000/svg">
<path d="M4.46424 8.70709L3.40358 7.64643C2.84097 7.08382 2.5249 6.32076 2.5249 5.52511C2.5249 4.72946 2.84097 3.9664 3.40358 3.40379C3.96619 2.84118 4.72925 2.52511 5.5249 2.52511C6.32055 2.52511 7.08361 2.84118 7.64622 3.40379L8.70688 4.46445M11.5353 7.29288L12.596 8.35354C13.1586 8.91615 13.4746 9.67921 13.4746 10.4749C13.4746 11.2705 13.1586 12.0336 12.596 12.5962C12.0334 13.1588 11.2703 13.4749 10.4746 13.4749C9.679 13.4749 8.91594 13.1588 8.35333 12.5962L7.29267 11.5355M6.07888 6.07909L9.96487 9.96508" stroke="white" stroke-width="1.5" stroke-linecap="round" stroke-linejoin="round"/>
</svg>
