<svg width="16" height="16" viewBox="0 0 16 16" fill="none" xmlns="http://www.w3.org/2000/svg">
<path d="M13.25 10.05C13.25 11.1701 13.25 11.7302 13.032 12.158C12.8403 12.5343 12.5343 12.8403 12.158 13.032C11.7302 13.25 11.1701 13.25 10.05 13.25H5.95C4.82989 13.25 4.26984 13.25 3.84202 13.032C3.46569 12.8403 3.15973 12.5343 2.96799 12.158C2.75 11.7302 2.75 11.1701 2.75 10.05V5.95C2.75 4.82989 2.75 4.26984 2.96799 3.84202C3.15973 3.46569 3.46569 3.15973 3.84202 2.96799C4.26984 2.75 4.8299 2.75 5.95 2.75H10.05C11.1701 2.75 11.7302 2.75 12.158 2.96799C12.5343 3.15973 12.8403 3.46569 13.032 3.84202C13.25 4.26984 13.25 4.8299 13.25 5.95V10.05Z" stroke="white" stroke-width="1.5"/>
<path d="M6.75 13.25V2.75" stroke="white" stroke-width="1.5"/>
</svg>
